<?xml version="1.0" encoding="utf-8"?>
<!-- Generator: Adobe Illustrator 17.0.0, SVG Export Plug-In . SVG Version: 6.00 Build 0)  -->
<!DOCTYPE svg PUBLIC "-//W3C//DTD SVG 1.1//EN" "http://www.w3.org/Graphics/SVG/1.1/DTD/svg11.dtd">
<svg version="1.1" id="layer" xmlns="http://www.w3.org/2000/svg" xmlns:xlink="http://www.w3.org/1999/xlink" x="0px" y="0px"
	 width="932.066px" height="241.488px" viewBox="196.5 413.588 932.066 241.488"
	 enable-background="new 196.5 413.588 932.066 241.488" xml:space="preserve">
<g>
	<polygon fill="#211F43" points="807.884,583.193 796.689,583.193 796.689,527.804 789.844,527.804 789.844,517.461 
		796.689,517.461 796.689,493.825 807.884,493.825 807.884,517.461 819.638,517.461 819.638,527.804 807.884,527.804 	"/>
	<path fill="#211F43" d="M551.028,526.826h0.268c5.457-7.264,13.573-11.182,22.669-11.182c19.299,0,31.461,16.651,31.461,34.819
		c0,18.75-11.894,34.551-31.601,34.551c-8.956,0-17.211-3.918-22.529-11.043h-0.268v46.142h-11.194v-102.65h11.194V526.826z
		 M550.469,549.623c0,12.874,7.544,25.036,21.537,25.036c14.401,0,21.946-11.602,21.946-24.884c0-13.153-8.256-23.776-22.085-23.776
		C558.853,525.998,550.469,537.321,550.469,549.623"/>
	<path fill="#211F43" d="M858.496,492.711c0,4.478-3.627,7.964-7.964,7.964c-4.338,0-7.976-3.487-7.976-7.964
		c0-4.326,3.638-7.976,7.976-7.976C854.87,484.735,858.496,488.385,858.496,492.711 M856.118,583.199h-11.183v-65.732h11.183
		V583.199z"/>
	<path fill="#211F43" d="M753.504,532.705c-1.539-3.486-4.898-6.705-8.956-6.705c-3.918,0-8.116,3.067-8.116,7.276
		c0,6.005,7.568,8.244,15.252,11.451c7.696,3.23,15.24,7.836,15.24,18.879c0,12.465-10.063,21.409-22.237,21.409
		c-11.043,0-19.718-6.297-23.216-16.64l9.923-4.198c2.81,6.157,6.017,10.495,13.433,10.495c6.005,0,10.635-4.07,10.635-10.087
		c0-14.669-29.653-9.643-29.653-30.329c0-11.043,8.955-18.611,19.578-18.611c7.556,0,14.553,5.317,17.491,12.162L753.504,532.705z"
		/>
	<path fill="#211F43" d="M968.829,467.815v57.348l0.268,0.268c4.629-6.297,10.646-9.783,18.751-9.783
		c18.179,0,22.377,13.141,22.377,28.534v39.017h-11.183v-37.058c0-10.634-0.839-20.15-13.853-20.15
		c-15.381,0-16.36,14.273-16.36,26.027v31.181h-11.194V467.815H968.829z"/>
	<polygon fill="#211F43" points="628.344,517.464 641.358,517.464 664.562,564.586 685.832,517.464 698.554,517.464 
		650.021,620.114 637.3,620.114 658.557,577.039 	"/>
	<path fill="#211F43" d="M934.32,537.635h-0.268c-4.944-6.273-11.089-10.541-19.497-10.541c-12.967,0-22.179,10.681-22.179,23.228
		c0,12.43,8.547,23.251,21.631,23.251c8.955,0,15.229-4.011,20.441-10.821h0.268v14.285c-6.145,4.151-12.43,6.413-19.905,6.413
		c-18.96,0-33.396-14.145-33.396-33.128c0-18.692,15.101-33.116,33.525-33.116c6.821,0,13.76,2.262,19.38,6.273V537.635z"/>
	<path fill="#211F43" d="M1044.093,552.599c0.128,11.626,8.419,20.978,20.57,20.978c9.084,0,14.949-5.481,19.112-12.955l9.084,5.201
		c-6.017,11.218-16.173,17.631-28.989,17.631c-18.692,0-30.726-14.285-30.726-32.324c0-18.552,10.821-33.921,30.458-33.921
		c20.173,0,30.843,16.698,29.782,35.39H1044.093z M1082.165,543.526c-1.469-9.084-9.084-16.43-18.447-16.43
		c-9.212,0-17.748,7.346-19.089,16.43H1082.165z"/>
</g>
<circle fill="none" stroke="#211F43" stroke-width="10" stroke-miterlimit="10" cx="417.885" cy="554.785" r="35.125"/>
<g>
	<path fill="none" stroke="#211F43" stroke-width="10" stroke-miterlimit="10" d="M452.461,514.912h13.057
		c6.071,0,10.992,5.373,10.992,12v13.034"/>
	<path fill="none" stroke="#211F43" stroke-width="10" stroke-miterlimit="10" d="M359.26,540.165v-13.253
		c0-6.627,4.921-12,10.992-12h13.085"/>
	<path fill="none" stroke="#211F43" stroke-width="10" stroke-miterlimit="10" d="M383.295,594.658h-13.043
		c-6.071,0-10.992-5.373-10.992-12v-13.509"/>
	<path fill="none" stroke="#211F43" stroke-width="10" stroke-miterlimit="10" d="M476.51,569.746v12.912
		c0,6.627-4.921,12-10.992,12h-13.679"/>
</g>
<path fill="#211F43" d="M401.253,571.257c7.414,7.523,19.711,9.095,28.749,3.675c9.71-5.822,13.609-16.931,9.942-28.326
	c-6.874,3.967-10.242,4.214-13.915,1.041c-1.585-1.369-2.445-3.105-3.025-5.113c-1.111-3.85,1.341-6.603,3.123-9.555
	c-11.042-3.931-22.001-0.237-27.977,9.141C392.256,551.369,393.541,563.431,401.253,571.257z"/>
<g>
	<linearGradient id="SVGID_1_" gradientUnits="userSpaceOnUse" x1="273.6655" y1="507.7165" x2="418.6063" y2="561.2816">
		<stop  offset="0" style="stop-color:#EE4C2C"/>
		<stop  offset="0.63" style="stop-color:#E55BBD"/>
		<stop  offset="1" style="stop-color:#E336A0"/>
	</linearGradient>
	<path fill="url(#SVGID_1_)" d="M336.88,524.077c2.509,2.642,4.104,5.242,7.063,6.982c-0.804-2.555-3.085-4.14-3.099-6.954
		c3.697,2.469,6.109,6.464,11.453,7.117c-3.232-2.567-5.539-4.98-7.584-8.218c4.364-0.435,8.233-0.629,13.076,0.404
		c-3.728-2.729-7.301-2.957-11.206-4.556c6.366-0.934,11.583,0.039,16.682,1.94c8.427,3.141,15.147,8.819,21.645,14.763
		c4.865,4.45,10.509,7.313,16.794,9.056c1.046,0.29,2.22,0.265,3.067,1.271c-1.701,0.182-3.293,0.353-5.462,0.585
		c4.022,2.913,8.154,3.466,12.341,4.226c-2.275,2.601-5.456,3.683-7.908,5.76l0,0c-9.436,4.225-19.347,6.15-29.661,6.121h0
		c-1.689-0.218-3.387-0.385-5.067-0.661c-14.347-2.359-25.299-9.169-30.293-23.514C337.171,533.951,336.259,529.334,336.88,524.077z
		"/>
	
		<linearGradient id="SVGID_2_" gradientUnits="userSpaceOnUse" x1="215.4529" y1="450.0316" x2="372.9972" y2="565.0389" gradientTransform="matrix(0.9989 -0.0468 0.0468 0.9989 18.7847 6.4489)">
		<stop  offset="0" style="stop-color:#EE4C2C"/>
		<stop  offset="0.63" style="stop-color:#E55BBD"/>
		<stop  offset="1" style="stop-color:#E336A0"/>
	</linearGradient>
	<path fill="url(#SVGID_2_)" d="M331.882,519.357c-0.144-0.027-0.329-0.042-0.501-0.097c-1.298-0.418-2.516-1.003-3.701-1.652
		c-0.066-0.034-0.146-0.079-0.237-0.132c-0.553-0.308-1.1-0.627-1.646-0.95c-0.141-0.084-0.222-0.16-0.263-0.231
		c-1.121-0.716-2.386-1.544-3.177-2.064c-0.126-0.051-0.257-0.129-0.402-0.235c-0.121-0.088-0.24-0.179-0.36-0.267
		c-0.011-0.007-0.018-0.012-0.018-0.012l0-0.001c-1.781-1.314-3.535-2.663-5.224-4.093c-3.422-2.895-6.79-5.85-9.895-9.09
		c-0.17-0.136-0.354-0.258-0.507-0.41c-14.472-14.296-27.635-29.672-38.633-46.832c-0.977-1.524-2.094-2.977-2.693-4.72
		c-1.056-0.843-1.473-2.115-2.101-3.229c-2.685-4.768-5.256-9.593-6.748-14.905c-0.307-1.094-0.516-2.204-0.505-3.339
		c0.011-1.135,0.346-1.418,1.472-1.369c1.222,0.053,2.368,0.425,3.48,0.889c7.237,3.022,13.513,7.578,19.658,12.343l0,0
		c0.409,0.297,0.828,0.581,1.227,0.891c6.336,4.94,12.362,10.237,18.168,15.787c6.071,5.802,11.861,11.872,17.342,18.236
		c0.134,0.121,0.282,0.23,0.4,0.365c3.9,4.437,7.784,8.888,11.444,13.528c2.688,3.408,5.267,6.893,7.598,10.553l0.001,0
		c0.395,0.595,0.785,1.228,1.156,1.862c0.053,0.086,0.104,0.17,0.146,0.252c0.781,1.353,1.472,2.692,1.961,3.677
		c0.057,0.069,0.113,0.156,0.169,0.279c0.195,0.424,0.389,0.848,0.577,1.274l0.001,0.001h0c0.549,1.242,1.05,2.501,1.383,3.822
		c0.369,1.461-0.012,2.748-1.137,3.774c-1.859,1.697-3.737,3.374-5.596,5.071C333.923,519.063,332.98,519.36,331.882,519.357z"/>
</g>
</svg>
